HIERARCHY
ROOT root
{
	OFFSET 0.000000 0.000000 0.000000
	CHANNELS 6 Xposition Yposition Zposition Zrotation Yrotation Xrotation
	JOINT lhip
	{
		OFFSET 0.058581 -0.082280 -0.017664
		CHANNELS 3 Zrotation Yrotation Xrotation
		JOINT lknee
		{
			OFFSET 0.043451 -0.386469 0.008037
			CHANNELS 3 Zrotation Yrotation Xrotation
			JOINT lankle
			{
				OFFSET -0.014790 -0.426874 -0.037428
				CHANNELS 3 Zrotation Yrotation Xrotation
				JOINT ltoe
				{
					OFFSET 0.041054 -0.060286 0.122042
					CHANNELS 3 Zrotation Yrotation Xrotation
					End Site
					{
						OFFSET 0.000000 0.000000 0.000000
					}
				}
			}
		}
	}
	JOINT rhip
	{
		OFFSET -0.060310 -0.090513 -0.013543
		CHANNELS 3 Zrotation Yrotation Xrotation
		JOINT rknee
		{
			OFFSET -0.043257 -0.383688 -0.004843
			CHANNELS 3 Zrotation Yrotation Xrotation
			JOINT rankle
			{
				OFFSET 0.019056 -0.420046 -0.034562
				CHANNELS 3 Zrotation Yrotation Xrotation
				JOINT rtoe
				{
					OFFSET -0.034840 -0.062106 0.130323
					CHANNELS 3 Zrotation Yrotation Xrotation
					End Site
					{
						OFFSET 0.000000 0.000000 0.000000
					}
				}
			}
		}
	}
	JOINT lowerback
	{
		OFFSET 0.004439 0.124404 -0.038385
		CHANNELS 3 Zrotation Yrotation Xrotation
		JOINT upperback
		{
			OFFSET 0.004488 0.137956 0.026820
			CHANNELS 3 Zrotation Yrotation Xrotation
			JOINT chest
			{
				OFFSET -0.002265 0.056032 0.002855
				CHANNELS 3 Zrotation Yrotation Xrotation
				JOINT lowerneck
				{
					OFFSET -0.013390 0.211636 -0.033468
					CHANNELS 3 Zrotation Yrotation Xrotation
					JOINT upperneck
					{
						OFFSET 0.010113 0.088937 0.050410
						CHANNELS 3 Zrotation Yrotation Xrotation
						End Site
						{
							OFFSET 0.000000 0.000000 0.000000
						}
					}
				}
				JOINT lclavicle
				{
					OFFSET 0.071702 0.114000 -0.018898
					CHANNELS 3 Zrotation Yrotation Xrotation
					JOINT lshoulder
					{
						OFFSET 0.122921 0.045205 -0.019046
						CHANNELS 3 Zrotation Yrotation Xrotation
						JOINT lelbow
						{
							OFFSET 0.255332 -0.015649 -0.022946
							CHANNELS 3 Zrotation Yrotation Xrotation
							JOINT lwrist
							{
								OFFSET 0.265709 0.012698 -0.007375
								CHANNELS 3 Zrotation Yrotation Xrotation
								End Site
								{
									OFFSET 0.000000 0.000000 0.000000
								}
							}
						}
					}
				}
				JOINT rclavicle
				{
					OFFSET -0.082954 0.112472 -0.023707
					CHANNELS 3 Zrotation Yrotation Xrotation
					JOINT rshoulder
					{
						OFFSET -0.113228 0.046853 -0.008472
						CHANNELS 3 Zrotation Yrotation Xrotation
						JOINT relbow
						{
							OFFSET -0.260127 -0.014369 -0.031269
							CHANNELS 3 Zrotation Yrotation Xrotation
							JOINT rwrist
							{
								OFFSET -0.269108 0.006794 -0.006027
								CHANNELS 3 Zrotation Yrotation Xrotation
								End Site
								{
									OFFSET 0.000000 0.000000 0.000000
								}
							}
						}
					}
				}
			}
		}
	}
}
MOTION
Frames: 5
Frame Time: 0.033333
0.480726 0.133178 0.952011 80.195412 -6.292156 82.504975 12.700572 -6.146510 -31.706590 -11.516304 16.623791 108.343008 -0.007880 10.241777 -21.847268 0.000000 -0.000000 0.000000 0.820808 0.789695 -3.684639 1.787373 5.038162 32.067482 -4.206950 -11.956789 -26.697538 0.000000 -0.000000 0.000000 -0.751738 4.268787 21.702102 -1.103793 0.309583 -6.372161 -2.529409 1.138359 2.349990 -2.516969 -10.571289 -5.548240 1.612052 -9.522383 4.038609 -24.186398 10.252204 0.712057 -50.478206 5.420397 6.894802 -4.421002 -65.045046 34.408605 0.671711 -4.086392 -4.157900 20.047238 1.727638 0.916926 49.469911 0.649804 13.298141 0.393500 50.703992 30.830197 -4.519805 -6.214778 12.735712 
0.484865 0.124834 0.985323 78.940266 -7.809618 83.449355 13.319093 -4.584448 -33.375240 -10.133942 18.285326 111.408679 0.646821 10.008542 -22.789300 0.000000 -0.000000 0.000000 -0.944837 -0.446073 -0.500962 1.448837 7.220362 24.029164 -1.816888 -8.866086 -18.124266 0.000000 -0.000000 0.000000 -2.312629 6.347593 20.592602 -1.328491 0.483297 -7.819095 -2.312670 1.372578 3.069711 -2.795026 -11.450269 -3.572591 2.235372 -9.466114 5.231891 -23.138938 11.871639 0.354745 -49.424196 5.726428 7.562658 -11.755824 -66.515529 42.104277 2.390382 -4.331372 -3.967973 19.490296 0.467792 0.412981 48.881682 0.097102 14.913635 3.802787 51.611957 33.842685 -5.690921 -5.667330 14.030432 
0.488426 0.118090 1.023924 79.214621 -9.133011 83.490977 12.749939 -4.265715 -34.537258 -8.652069 19.213875 116.256530 1.329271 9.700693 -23.988023 0.000000 -0.000000 0.000000 -3.985331 -1.878630 2.454700 1.665961 6.038141 17.235671 3.970490 -4.373530 -6.419900 0.000000 -0.000000 0.000000 -3.689562 7.480066 19.941153 -1.462864 -0.594182 -7.826102 -2.007143 1.307308 3.542926 -2.859887 -11.884149 -2.022585 3.041236 -8.813832 5.618713 -21.702479 12.224556 0.756408 -50.574732 5.808664 7.495789 -11.501924 -66.735686 40.368146 2.354292 -4.594256 -5.287195 18.586918 -0.175926 -0.558325 49.902349 0.402599 15.941807 4.831531 50.532315 34.123902 -2.757224 -6.736860 13.809661 
0.488312 0.111959 1.062283 79.489514 -9.340400 83.325370 12.623465 -4.318252 -35.828646 -7.557511 20.155315 121.098511 1.255880 9.758693 -24.818248 0.000000 -0.000000 0.000000 -5.843335 -3.154493 3.201837 2.256780 4.130943 13.313931 10.340175 -2.284805 9.542464 0.000000 -0.000000 0.000000 -3.725768 7.514299 21.135007 -1.692705 -1.318091 -9.349256 -1.804223 1.254455 4.099767 -3.628328 -13.027965 -1.043889 3.625526 -7.130245 6.567981 -20.707340 11.809433 1.209372 -51.699070 5.780351 7.171822 -9.461121 -65.612530 36.855927 3.180633 -4.813787 -6.426665 17.390776 -0.342735 -1.024727 51.895989 0.824799 16.547121 3.965422 48.491385 31.722644 -1.014106 -7.730723 13.015597 
0.485457 0.104059 1.092619 78.684031 -8.586421 84.516664 13.518946 -3.477794 -38.163421 -5.958702 21.119988 125.447901 1.657694 10.338637 -25.678973 0.000000 -0.000000 0.000000 -5.277261 -3.571107 0.433054 2.048163 5.338675 12.971601 10.884328 -3.150141 16.239728 0.000000 -0.000000 0.000000 -3.456081 7.204710 20.836409 -1.400362 -1.375410 -10.410055 -1.531405 1.292603 4.137209 -4.763220 -13.706888 0.279590 4.097545 -5.182465 6.433985 -19.906183 11.471874 1.951196 -52.687552 5.430481 6.207531 -9.572974 -63.891995 37.330119 3.886355 -3.902414 -6.441432 16.474368 -0.325886 -0.450296 53.525436 1.635327 16.009086 3.293148 46.687464 30.805390 0.229666 -8.276859 11.637237 
